<svg width="319" height="319" viewBox="0 0 319 319" fill="none" xmlns="http://www.w3.org/2000/svg">
<path d="M177.411 303.158C173.126 322.281 145.874 322.281 141.589 303.158L136.04 278.397C144.4 280.254 153.089 281.233 162.005 281.233C169.072 281.233 175.996 280.618 182.727 279.438L177.411 303.158ZM45.2531 248.416L60.431 224.471C68.8986 238.211 80.0755 250.102 93.2172 259.4L70.5837 273.747C54.032 284.239 34.7615 264.968 45.2531 248.416ZM42.7768 162.005C42.7768 169.482 43.4652 176.799 44.7825 183.897L15.8419 177.412C-3.28059 173.126 -3.28059 145.874 15.8419 141.589L45.8816 134.857C43.8504 143.579 42.7767 152.667 42.7768 162.005ZM70.5837 45.2531L97.0331 62.0184C83.0615 71.1155 71.1155 83.0615 62.0184 97.0331L45.2531 70.5837C34.7615 54.032 54.032 34.7615 70.5837 45.2531ZM162.005 42.7767C152.667 42.7767 143.579 43.8504 134.857 45.8816L141.589 15.8419C145.874 -3.28062 173.126 -3.28063 177.411 15.8419L183.897 44.7825C176.799 43.4652 169.482 42.7767 162.005 42.7767ZM273.747 70.5837L259.4 93.2172C250.102 80.0754 238.211 68.8985 224.471 60.431L248.416 45.2531C264.968 34.7615 284.238 54.032 273.747 70.5837ZM281.233 162.005C281.233 153.089 280.254 144.4 278.397 136.04L303.158 141.589C322.281 145.874 322.281 173.126 303.158 177.411L279.438 182.727C280.618 175.996 281.233 169.072 281.233 162.005ZM248.416 273.747L228.393 261.055C241.286 252.396 252.396 241.286 261.055 228.393L273.747 248.416C284.239 264.968 264.968 284.238 248.416 273.747ZM60.8058 162.005C60.8058 106.114 106.114 60.8058 162.005 60.8058C217.896 60.8058 263.204 106.114 263.204 162.005C263.204 217.896 217.896 263.204 162.005 263.204C106.114 263.204 60.8058 217.896 60.8058 162.005Z" stroke="#C89243" stroke-opacity="0.6" stroke-width="3"/>
</svg>
