<?xml version="1.0" encoding="UTF-8" standalone="no"?>
<svg
   viewBox="0 0 512 512"
   version="1.1"
   id="svg4"
   sodipodi:docname="Location.svg"
   inkscape:version="1.2.2 (b0a8486, 2022-12-01)"
   xmlns:inkscape="http://www.inkscape.org/namespaces/inkscape"
   xmlns:sodipodi="http://sodipodi.sourceforge.net/DTD/sodipodi-0.dtd"
   xmlns="http://www.w3.org/2000/svg"
   xmlns:svg="http://www.w3.org/2000/svg">
  <defs
     id="defs8" />
  <sodipodi:namedview
     id="namedview6"
     pagecolor="#ffffff"
     bordercolor="#000000"
     borderopacity="0.25"
     inkscape:showpageshadow="2"
     inkscape:pageopacity="0.0"
     inkscape:pagecheckerboard="0"
     inkscape:deskcolor="#d1d1d1"
     showgrid="false"
     inkscape:zoom="0.4609375"
     inkscape:cx="254.91525"
     inkscape:cy="256"
     inkscape:window-width="1367"
     inkscape:window-height="456"
     inkscape:window-x="0"
     inkscape:window-y="0"
     inkscape:window-maximized="0"
     inkscape:current-layer="svg4" />
  <!--! Font Awesome Pro 6.4.2 by @fontawesome - https://fontawesome.com License - https://fontawesome.com/license (Commercial License) Copyright 2023 Fonticons, Inc. -->
  <path
     d="M256 0c17.7 0 32 14.3 32 32V66.7C368.4 80.1 431.9 143.6 445.3 224H480c17.7 0 32 14.3 32 32s-14.3 32-32 32H445.3C431.9 368.4 368.4 431.9 288 445.3V480c0 17.7-14.3 32-32 32s-32-14.3-32-32V445.3C143.6 431.9 80.1 368.4 66.7 288H32c-17.7 0-32-14.3-32-32s14.3-32 32-32H66.7C80.1 143.6 143.6 80.1 224 66.7V32c0-17.7 14.3-32 32-32zM128 256a128 128 0 1 0 256 0 128 128 0 1 0 -256 0zm128-80a80 80 0 1 1 0 160 80 80 0 1 1 0-160z"
     id="path2"
     style="fill:#c89243;fill-opacity:1" />
</svg>
