<svg width="65" height="65" viewBox="0 0 65 65" fill="none" xmlns="http://www.w3.org/2000/svg">
<path fill-rule="evenodd" clip-rule="evenodd" d="M28.2286 3.12532C29.1624 -1.04177 35.1012 -1.04177 36.035 3.12532L37.258 8.58293C35.4531 8.14344 33.5674 7.91047 31.6272 7.91047C30.0641 7.91047 28.5364 8.06168 27.0577 8.35027L28.2286 3.12532ZM52.083 19.6179C50.2944 16.5779 47.8475 13.9717 44.9381 11.9952L49.8825 8.86115C53.4894 6.57488 57.6887 10.7742 55.4025 14.3811L52.083 19.6179ZM55.3439 31.6272C55.3439 29.9805 55.1761 28.373 54.8566 26.8209L61.1383 28.2286C65.3054 29.1624 65.3054 35.1012 61.1383 36.035L54.6118 37.4975C55.0898 35.6202 55.3439 33.6534 55.3439 31.6272ZM44.1526 51.7705C47.2373 49.8483 49.8483 47.2373 51.7705 44.1526L55.4025 49.8825C57.6887 53.4894 53.4894 57.6887 49.8825 55.4025L44.1526 51.7705ZM31.6272 55.3439C33.6534 55.3439 35.6202 55.0898 37.4975 54.6118L36.035 61.1383C35.1012 65.3054 29.1624 65.3054 28.2286 61.1383L26.8209 54.8566C28.3731 55.1761 29.9805 55.3439 31.6272 55.3439ZM11.9952 44.9381C13.9717 47.8475 16.5779 50.2944 19.6179 52.083L14.3811 55.4025C10.7742 57.6887 6.57488 53.4894 8.86115 49.8825L11.9952 44.9381ZM7.91047 31.6272C7.91047 33.5674 8.14344 35.4531 8.58293 37.258L3.12532 36.035C-1.04177 35.1012 -1.04177 29.1624 3.12532 28.2286L8.35027 27.0577C8.06168 28.5364 7.91047 30.0641 7.91047 31.6272ZM18.8102 11.6686C15.9492 13.5097 13.5097 15.9492 11.6686 18.8102L8.86115 14.3811C6.57488 10.7742 10.7742 6.57488 14.3811 8.86115L18.8102 11.6686ZM31.6272 52.3163C43.0535 52.3163 52.3163 43.0535 52.3163 31.6272C52.3163 20.2009 43.0535 10.9381 31.6272 10.9381C20.2009 10.9381 10.9381 20.2009 10.9381 31.6272C10.9381 43.0535 20.2009 52.3163 31.6272 52.3163Z" fill="#C89243"/>
</svg>
